<svg width="1440" height="484" viewBox="0 0 1440 484" fill="none" xmlns="http://www.w3.org/2000/svg">
<path d="M-66 299C-66 299 407.511 185.61 714.561 185.003C1025.83 184.387 1506 299 1506 299" stroke="white" stroke-opacity="0.3"/>
<path d="M-57.1595 361.535C-57.1595 361.535 403.508 210.773 709.164 185.654C1019.02 160.189 1508 236.031 1508 236.031" stroke="white" stroke-opacity="0.3"/>
<path d="M-68.0001 236.031C-68.0001 236.031 414.233 160.876 720.004 184.785C1029.98 209.022 1497.16 361.535 1497.16 361.535" stroke="white" stroke-opacity="0.3"/>
<path d="M-64.4339 173.107C-64.4339 173.107 423.11 136.76 725.445 185.003C1031.93 233.909 1482.84 423.161 1482.84 423.161" stroke="white" stroke-opacity="0.3"/>
<path d="M-42.8353 423.161C-42.8353 423.161 401.743 236.174 703.847 186.734C1010.1 136.615 1504.43 173.107 1504.43 173.107" stroke="white" stroke-opacity="0.3"/>
<path d="M-22.7054 483.408C-22.7054 483.408 402.4 261.618 698.653 188.234C998.976 113.842 1494.9 110.708 1494.9 110.708" stroke="white" stroke-opacity="0.3"/>
<path d="M-54.8978 110.708C-54.8978 110.708 434.248 113.445 730.844 185.655C1031.52 258.857 1462.71 483.408 1462.71 483.408" stroke="white" stroke-opacity="0.3"/>
</svg>
