<svg version="1.1" id="Layer_1" xmlns="http://www.w3.org/2000/svg" xmlns:xlink="http://www.w3.org/1999/xlink" viewBox="0 0 512 512" xml:space="preserve" fill="#000000"><g id="SVGRepo_bgCarrier" stroke-width="0"></g><g id="SVGRepo_tracerCarrier" stroke-linecap="round" stroke-linejoin="round"></g><g id="SVGRepo_iconCarrier"> <path style="fill:#FEDEA1;" d="M51.2,396.8V64c0-28.237,22.963-51.2,51.2-51.2h307.2c28.237,0,51.2,22.963,51.2,51.2v332.8H51.2z M129.178,169.711c-3.959,0.137-7.168,3.337-7.296,7.279c-0.017,0.674-1.809,62.336,35.558,99.721 c33.843,33.835,88.593,35.55,99.217,35.55l2.057,0.034c10.163,0,63.829-1.715,97.715-35.584 c37.069-37.077,35.575-99.098,35.558-99.729c-0.137-4.258-3.849-7.125-9.446-7.305c-2.304,0.009-12.151,0.179-25.421,2.338 l-12.604,2.057l-2.091-12.604c-2.944-17.775-7.509-29.559-7.706-30.046c-0.742-1.929-2.27-3.49-4.113-4.25 c-0.947-0.393-1.903-0.58-2.901-0.58c-1.033,0-2.057,0.213-3.055,0.657c-0.171,0.068-8.567,3.738-20.267,11.392l-11.392,7.458 l-6.741-11.836c-11.477-20.139-23.364-32.58-23.859-33.109c-1.408-1.468-3.439-2.33-5.453-2.33c-2.005,0-4.036,0.87-5.427,2.313 c-0.171,0.179-12.331,12.843-23.91,33.178l-6.741,11.836l-11.392-7.458c-10.701-7.006-18.603-10.692-19.959-11.307l-0.333-0.154 c-0.981-0.435-1.963-0.64-3.012-0.64c-0.998,0-1.929,0.179-2.833,0.563c-1.946,0.794-3.439,2.33-4.181,4.233 c-0.777,2.057-4.966,13.568-7.697,30.08l-2.082,12.595l-12.604-2.048c-9.361-1.519-18.534-2.295-27.273-2.295L129.178,169.711z"></path> <path style="fill:#FFCFCC;" d="M302.652,173.918c-1.493-5.7-3.379-11.46-5.615-17.126l-3.746-9.498l8.431-5.76 c5.333-3.652,10.812-6.997,16.265-9.958l13.875-7.535l4.497,15.138c1.596,5.359,3.831,13.935,5.453,24.32l1.698,10.889 l-10.513,3.302c-4.48,1.399-8.841,3.004-12.945,4.762l-13.653,5.828L302.652,173.918z"></path> <rect x="51.2" y="396.8" style="fill:#FEE5B4;" width="409.6" height="51.2"></rect> <path style="fill:#FF9F99;" d="M279.313,288.094c12.621-18.995,27.665-48.734,27.665-82.543c0-2.372-0.094-4.727-0.239-7.049 l-0.538-8.508l7.646-3.772c24.755-12.194,50.611-14.985,63.812-15.556l13.943-0.597l-0.597,13.943 c-0.759,17.869-5.726,62.618-35.2,92.083c-15.497,15.522-36.787,26.163-63.249,31.625l-30.455,6.289L279.313,288.094z"></path> <path style="fill:#FFCFCC;" d="M193.775,182.519c-4.173-1.792-8.533-3.405-12.962-4.813l-10.462-3.328l1.69-10.846 c1.604-10.334,3.857-18.953,5.461-24.354l4.48-15.113l13.867,7.501c5.521,2.978,11.008,6.332,16.299,9.958l8.422,5.769l-3.746,9.489 c-2.227,5.649-4.122,11.443-5.632,17.212l-3.755,14.396L193.775,182.519z"></path> <path style="fill:#FF9F99;" d="M221.312,307.712c-26.47-5.461-47.753-16.102-63.258-31.642c-29.44-29.414-34.423-74.155-35.2-92.032 l-0.614-14.012l14.012,0.666c13.261,0.631,39.168,3.499,63.744,15.599l7.663,3.772l-0.538,8.516 c-0.145,2.295-0.222,4.625-0.222,6.963c0,33.766,15.053,63.522,27.674,82.543l17.195,25.899L221.312,307.712z"></path> <path style="fill:#FF877F;" d="M247.057,303.539c-11.81-14.336-39.296-52.582-39.296-97.988c0-45.133,27.469-83.533,39.279-97.946 l9.899-12.092l9.899,12.092c11.81,14.404,39.279,52.804,39.279,97.946c0,45.244-27.469,83.584-39.287,97.971l-9.873,12.023 L247.057,303.539z"></path> <g> <path style="fill:#573A32;" d="M382.95,156.877c-3.209,0-13.79,0.196-27.887,2.5c-3.046-18.398-7.817-31.087-8.414-32.623 c-1.988-5.154-6.059-9.31-11.153-11.409c-2.466-1.024-5.077-1.553-7.791-1.553c-2.825,0-5.572,0.589-8.166,1.715 c-0.435,0.188-9.634,4.215-22.178,12.425c-11.878-20.847-24.26-34.091-25.762-35.652c-3.814-3.977-9.165-6.263-14.677-6.263 c-5.513,0-10.863,2.287-14.677,6.272c-1.502,1.553-13.901,14.814-25.788,35.686c-12.749-8.354-22.076-12.442-22.135-12.459 c-2.586-1.135-5.333-1.724-8.175-1.724c-2.714,0-5.325,0.529-7.765,1.553c-5.111,2.099-9.19,6.263-11.187,11.426 c-0.572,1.527-5.333,14.191-8.388,32.614c-13.491-2.185-23.936-2.466-29.329-2.466c-0.273,0-0.529,0-0.759,0 c-10.684,0.375-19.311,9.011-19.652,19.661c-0.102,2.765-1.766,68.096,39.296,109.175c37.214,37.197,94.95,39.296,108.271,39.296 c0.085,0,1.809,0.034,1.809,0.034c11.298,0,69.564-1.903,107.017-39.339c40.764-40.764,39.39-106.377,39.296-109.175 C404.446,165.922,395.827,157.286,382.95,156.877z M324.096,142.822c1.536,5.171,3.584,13.116,5.077,22.647 c-4.864,1.527-9.591,3.26-14.14,5.197c-1.621-6.212-3.661-12.425-6.084-18.577C314.948,148.002,320.273,144.896,324.096,142.822z M189.773,142.814c3.823,2.074,9.165,5.163,15.147,9.259c-2.441,6.178-4.471,12.416-6.11,18.671 c-4.591-1.963-9.301-3.712-14.123-5.248C186.172,155.947,188.237,148.002,189.773,142.814z M167.108,267.025 c-26.479-26.462-30.797-68.062-31.471-83.55c10.487,0.503,35.55,2.901,58.701,14.302c-0.162,2.56-0.247,5.163-0.247,7.774 c0,36.873,16.085,68.949,29.815,89.626C205.116,291.302,183.373,283.315,167.108,267.025z M256.939,295.398 c-10.487-12.723-36.378-48.358-36.378-89.847c0-41.225,25.796-76.928,36.378-89.839c10.573,12.911,36.378,48.614,36.378,89.839 C293.316,246.946,267.341,282.735,256.939,295.398z M346.761,267.034c-16.265,16.273-38.016,24.26-56.789,28.134 c13.722-20.659,29.798-52.736,29.798-89.626c0-2.654-0.102-5.265-0.265-7.851c23.134-11.401,47.804-13.773,58.709-14.251 C377.566,198.938,373.239,240.563,346.761,267.034z"></path> <path style="fill:#573A32;" d="M409.6,0H102.4c-35.285,0-64,28.706-64,64v435.2c0,7.074,5.726,12.8,12.8,12.8S64,506.274,64,499.2 v-38.4h25.6v38.4c0,7.074,5.726,12.8,12.8,12.8c7.074,0,12.8-5.726,12.8-12.8v-38.4h25.6v38.4c0,7.074,5.726,12.8,12.8,12.8 s12.8-5.726,12.8-12.8v-38.4H192v38.4c0,7.074,5.726,12.8,12.8,12.8c7.074,0,12.8-5.726,12.8-12.8v-38.4h25.6v38.4 c0,7.074,5.726,12.8,12.8,12.8c7.074,0,12.8-5.726,12.8-12.8v-38.4h25.6v38.4c0,7.074,5.726,12.8,12.8,12.8s12.8-5.726,12.8-12.8 v-38.4h25.6v38.4c0,7.074,5.726,12.8,12.8,12.8s12.8-5.726,12.8-12.8v-38.4h25.6v38.4c0,7.074,5.726,12.8,12.8,12.8 c7.074,0,12.8-5.726,12.8-12.8v-38.4H448v38.4c0,7.074,5.726,12.8,12.8,12.8s12.8-5.726,12.8-12.8V64 C473.6,28.706,444.894,0,409.6,0z M448,435.2H64v-25.6h384V435.2z M448,384H64V64c0-21.205,17.195-38.4,38.4-38.4h307.2 c21.205,0,38.4,17.195,38.4,38.4V384z"></path> </g> </g></svg>